<svg xmlns="http://www.w3.org/2000/svg" xmlns:xlink="http://www.w3.org/1999/xlink" viewBox="0 0 1050.6 387.53"><defs><style>.cls-1{fill:url(#linear-gradient);}.cls-2{fill:url(#linear-gradient-2);}.cls-3{fill:#265104;}.cls-4{fill:#fff;}</style><linearGradient id="linear-gradient" y1="193.76" x2="387.53" y2="193.76" gradientUnits="userSpaceOnUse"><stop offset="0" stop-color="#84cf00"/><stop offset="0.2" stop-color="#88cf00"/><stop offset="0.39" stop-color="#93cf00"/><stop offset="0.58" stop-color="#a6cf00"/><stop offset="0.76" stop-color="#c1cf00"/><stop offset="0.94" stop-color="#e3cf00"/><stop offset="1" stop-color="#f1cf00"/></linearGradient><linearGradient id="linear-gradient-2" x1="69.55" y1="419.45" x2="267.68" y2="264.28" gradientTransform="translate(0 -120)" xlink:href="#linear-gradient"/></defs><title>logo-whitetxt_1</title><g id="Layer_2" data-name="Layer 2"><g id="Layer_1-2" data-name="Layer 1"><circle class="cls-1" cx="193.76" cy="193.76" r="193.76"/><polygon class="cls-2" points="191.93 47.9 318.41 254.46 219.83 337.46 65.45 295.04 77.54 188.99 191.93 47.9"/><path class="cls-3" d="M223.57,339,67.77,296.38l-2.32-1,.31-1.82L72.7,188.12l0,0,.61-1.6L189,50l3.63-3.63L194.49,50l37.87,60.87.46,1.18,1.21,1.58,86.51,142.61M75.15,292.71,216.88,331l-53.62-94.5Zm94.24-56.42,52.34,92.22,2.65-83.31Zm60.42,9.8L227.2,328l84.57-68.63ZM77.86,192.56,71.7,286.34l60.73-66.5Zm59.64,29.82L84.77,280.11,158.69,233ZM230,240.59,312.81,254l-79.1-130.4Zm-62.67-10.16,57.25,9.28L228.27,123,174.7,181.65Zm-26-12.24,20.74,10.38,6-39.68ZM79.73,187.4l56.53,28.26,33.31-36.46L187.82,58.73Zm113.8-130L176.17,172l52.2-57.16Z"/><polygon class="cls-4" points="587.65 202.09 581.22 243.15 579.44 243.15 569.89 202.09 545.25 118.4 511.75 118.4 487.11 202.09 477.56 243.15 475.79 243.15 469.35 202.09 450.93 118.4 423.4 118.4 457.81 267.13 492.66 267.13 515.3 191.43 527.29 145.26 529.28 145.26 541.27 191.43 563.9 267.13 598.75 267.13 616.25 190.03 596.52 159.19 587.65 202.09"/><polygon class="cls-4" points="584.9 118.4 600.63 143.87 606.3 118.4 584.9 118.4"/><polygon class="cls-4" points="697.22 118.4 669.25 164.35 655.71 187.66 654.16 187.66 640.4 164.35 627.56 143.42 620.11 175.4 642.62 211.85 642.62 267.13 666.37 267.13 666.37 212.3 724.29 118.4 697.22 118.4"/><polygon class="cls-4" points="612.21 118.4 606.3 118.4 600.63 143.87 620.11 175.4 627.56 143.42 612.21 118.4"/><path class="cls-4" d="M730.07,267.12v-20L816,141.71v-1.77H734.51V118.41H848.16v20L762,243.82v1.77h89.46v21.53Z"/><path class="cls-4" d="M873.47,233.16V176.78H855.05v-20h18.86L879,129.5h18.42v27.31h33.3v20h-33.3v55.27c0,11.55,4.89,13.54,19.76,13.54h13.54v19.54a93.55,93.55,0,0,1-19.76,2C886.34,267.12,873.47,258,873.47,233.16Z"/><path class="cls-4" d="M947.83,267.12V118.41h24v56.82h.89c5.1-10,16.87-20.64,36.84-20.64,28.86,0,41.07,18.86,41.07,43.06v69.47h-24V203.2c0-19.76-6.22-28-26.42-28-19.53,0-28.41,7.55-28.41,28.41v63.48Z"/></g></g></svg>